<?xml version="1.0" encoding="UTF-8"?>
<svg id="Layer_1" data-name="Layer 1" xmlns="http://www.w3.org/2000/svg" viewBox="0 0 1689.68 1755.78">
  <defs>
    <style>
      .cls-1, .cls-2, .cls-3 {
        fill: none;
        stroke: #fff;
        stroke-miterlimit: 10;
      }

      .cls-4 {
        fill: #fff;
        stroke-width: 0px;
      }

      .cls-2 {
        stroke-width: 21px;
      }

      .cls-3 {
        stroke-width: 1px;
      }
    </style>
  </defs>
  <path class="cls-1" d="m676.08,591.96c-16.06-16.49-26.38-39.7-26.38-64.54,0-7.9.76-16.43,2.64-23.74"/>
  <line class="cls-2" x1="1331.61" y1="1327.54" x2="1186.08" y2="659.34"/>
  <circle class="cls-4" cx="1331.67" cy="1327.83" r="10.48"/>
  <path class="cls-1" d="m852.59,808.94c-16.06-16.49-26.38-39.7-26.38-64.54,0-7.9.76-16.43,2.64-23.74"/>
  <path class="cls-4" d="m1011.12,692.1l.2-.75,11.22-42.29c12.24-40.89,43.82-69.56,86.22-69.56,16.46,0,32.13,3.65,45.3,11.49-39.62-24.6-110.14-22.51-110.14-22.51h-2.42s-101.19-.36-101.19-.36c-15.1,0-29.36,3.75-41.93,10.33"/>
  <circle class="cls-4" cx="1132.39" cy="671.18" r="64.2"/>
  <path class="cls-1" d="m1108.71,578.44c48.46,0,87.75,39.05,87.75,87.23"/>
  <path class="cls-4" d="m898.38,578.44s-.08.04-.12.06c-6.3,3.26-12.17,7.31-17.51,11.97l-.8.69c-13.7,12.14-23.25,28.26-27.94,45.95l-35.67,135.95,137.23,136,53.29-199.41,4.26-17.57"/>
  <ellipse class="cls-4" cx="576" cy="1236.43" rx="64.38" ry="64.2"/>
  <path class="cls-3" d="m599.75,1329.18c-48.59,0-87.98-39.05-87.98-87.23"/>
  <path class="cls-1" d="m675.07,590.53c-16.06-16.49-26.38-39.7-26.38-64.54,0-7.9.76-16.43,2.64-23.74"/>
  <path class="cls-4" d="m832.59,473.68l.2-.75,11.22-42.29c12.24-40.89,43.82-69.56,86.22-69.56,16.46,0,32.13,3.65,45.3,11.49-39.62-24.6-110.14-22.51-110.14-22.51h-2.42s-101.19-.36-101.19-.36c-15.1,0-29.36,3.75-41.93,10.33"/>
  <circle class="cls-4" cx="953.87" cy="452.77" r="64.2"/>
  <path class="cls-1" d="m930.18,360.02c48.46,0,87.75,39.05,87.75,87.23"/>
  <path class="cls-4" d="m719.85,360.02s-.08.04-.12.06c-6.3,3.26-12.17,7.31-17.51,11.97l-.8.69c-13.7,12.14-23.25,28.26-27.94,45.95l-35.67,134.51,137.23,137.45,53.29-199.41,4.26-17.57"/>
  <ellipse class="cls-4" cx="398.47" cy="1018.01" rx="64.38" ry="64.2"/>
  <path class="cls-4" d="m535.45,940.95l-2.76,10.46h0s-12.52,45.69-12.52,45.69l-.2.75-6.4,24.07-4.85,18.22c-12.27,40.89-43.94,69.56-86.45,69.56-16.5,0-32.22-3.65-45.42-11.49,39.72,24.6,110.44,22.51,110.44,22.51h2.43s101.46.36,101.46.36c15.14,0,29.43-3.75,42.04-10.33.04-.02.08-.04.12-.06,6.32-3.26,12.2-7.31,17.56-11.97l.8-.69c7.38-6.52,13.42-14.27,18.29-22.73l-.03.06c3.96-7.12,7.16-14.72,9.5-22.69l2.43-9.21"/>
  <polyline class="cls-4" points="890.13 1150.06 954.49 905.61 816.81 771.26 740.3 1060.83"/>
  <path class="cls-3" d="m422.22,1110.76c-48.59,0-87.98-39.05-87.98-87.23,0-15.77,4.11-30.57,11.32-43.38"/>
  <polygon class="cls-4" points="688.34 1018.78 681.89 1043.46 733.74 1085.63 740.36 1060.85 688.34 1018.78"/>
  <path class="cls-4" d="m541.47,918.17s-50.77-25.11-103.08-14.59-104.3,39.41-104.3,114.43h14.67l18.01-43.84c1.3-2.49,15.59-19.41,17.68-21.29,13.08-11.75,63.87-48.86,150.99-11.94l6.03-22.78Z"/>
  <path class="cls-4" d="m890.24,1150.09s40.23,13.63,91.17-1.02,93.09-47.11,115.4-65.36,78.44-69.46,97.14-92.99c0,0,6.47-13.23,18.92-5.32,0,0,9.08,6.44,1.61,16.84s-64.49,70.29-102.24,99.44-61.74,49.5-122.42,69.8c0,0-52.48,17.06-105.55,1.21l5.97-22.6Z"/>
  <path class="cls-4" d="m535.45,940.94s27.76,12.22,66.86,41.69c34.43,25.94,79.59,60.82,79.59,60.82"/>
  <path class="cls-4" d="m688.34,1018.78s-75.85-57.86-78.67-59.98-44.66-31.93-68.19-40.64h0s96.43-364.96,96.43-364.96l137.23,137.45-86.73,328.15-.07-.02Z"/>
  <path class="cls-4" d="m884.08,1172.66c-71.31-16.73-150.43-87.03-150.43-87.03l-22.15,83.84h0s-12.52,45.69-12.52,45.69l-.2.75-6.4,24.07-4.85,18.22c-12.27,40.89-43.94,69.56-86.45,69.56-16.5,0-32.22-3.65-45.42-11.49,39.72,24.6,110.44,22.51,110.44,22.51h2.43s101.46.36,101.46.36c15.14,0,29.43-3.75,42.04-10.33.04-.02.08-.04.12-.06,6.32-3.26,12.2-7.31,17.56-11.97l.8-.69c7.38-6.52,13.42-14.27,18.29-22.73l-.03.06c3.96-7.12,7.16-14.72,9.5-22.69l25.82-98.06Z"/>
  <path class="cls-4" d="m740.36,1060.85s80.84,71.65,149.88,89.24"/>
</svg>